<svg preserveAspectRatio="none" width="100%" height="100%" overflow="visible" style="display: block;" viewBox="0 0 12 12" fill="none" xmlns="http://www.w3.org/2000/svg">
<g id="list-ul">
<path id="Primary" d="M1.5 1.5C1.30109 1.5 1.11032 1.57902 0.96967 1.71967C0.829018 1.86032 0.75 2.05109 0.75 2.25C0.75 2.44891 0.829018 2.63968 0.96967 2.78033C1.11032 2.92098 1.30109 3 1.5 3C1.69891 3 1.88968 2.92098 2.03033 2.78033C2.17098 2.63968 2.25 2.44891 2.25 2.25C2.25 2.05109 2.17098 1.86032 2.03033 1.71967C1.88968 1.57902 1.69891 1.5 1.5 1.5ZM4.125 1.875C3.91875 1.875 3.75 2.04375 3.75 2.25C3.75 2.45625 3.91875 2.625 4.125 2.625H11.625C11.8313 2.625 12 2.45625 12 2.25C12 2.04375 11.8313 1.875 11.625 1.875H4.125ZM4.125 5.625C3.91875 5.625 3.75 5.79375 3.75 6C3.75 6.20625 3.91875 6.375 4.125 6.375H11.625C11.8313 6.375 12 6.20625 12 6C12 5.79375 11.8313 5.625 11.625 5.625H4.125ZM4.125 9.375C3.91875 9.375 3.75 9.54375 3.75 9.75C3.75 9.95625 3.91875 10.125 4.125 10.125H11.625C11.8313 10.125 12 9.95625 12 9.75C12 9.54375 11.8313 9.375 11.625 9.375H4.125ZM2.25 6C2.25 5.80109 2.17098 5.61032 2.03033 5.46967C1.88968 5.32902 1.69891 5.25 1.5 5.25C1.30109 5.25 1.11032 5.32902 0.96967 5.46967C0.829018 5.61032 0.75 5.80109 0.75 6C0.75 6.19891 0.829018 6.38968 0.96967 6.53033C1.11032 6.67098 1.30109 6.75 1.5 6.75C1.69891 6.75 1.88968 6.67098 2.03033 6.53033C2.17098 6.38968 2.25 6.19891 2.25 6ZM1.5 9C1.30109 9 1.11032 9.07902 0.96967 9.21967C0.829018 9.36032 0.75 9.55109 0.75 9.75C0.75 9.94891 0.829018 10.1397 0.96967 10.2803C1.11032 10.421 1.30109 10.5 1.5 10.5C1.69891 10.5 1.88968 10.421 2.03033 10.2803C2.17098 10.1397 2.25 9.94891 2.25 9.75C2.25 9.55109 2.17098 9.36032 2.03033 9.21967C1.88968 9.07902 1.69891 9 1.5 9Z" fill="var(--fill-0, white)"/>
</g>
</svg>
