<svg preserveAspectRatio="none" width="100%" height="100%" overflow="visible" style="display: block;" viewBox="0 0 18 18" fill="none" xmlns="http://www.w3.org/2000/svg">
<g id="pen-to-square">
<path id="Primary" d="M14.7812 2.84063L15.1594 3.21875C15.4531 3.5125 15.4531 3.9875 15.1594 4.27812L14.25 5.19063L12.8094 3.75L13.7188 2.84063C14.0125 2.54688 14.4875 2.54688 14.7781 2.84063H14.7812ZM7.55625 9.00625L11.75 4.80937L13.1906 6.25L8.99375 10.4438C8.90313 10.5344 8.79062 10.6 8.66875 10.6344L6.84062 11.1563L7.3625 9.32813C7.39688 9.20625 7.4625 9.09375 7.55312 9.00313L7.55625 9.00625ZM12.6594 1.78125L6.49375 7.94375C6.22188 8.21562 6.025 8.55 5.92188 8.91562L5.02812 12.0406C4.95312 12.3031 5.025 12.5844 5.21875 12.7781C5.4125 12.9719 5.69375 13.0438 5.95625 12.9688L9.08125 12.075C9.45 11.9688 9.78438 11.7719 10.0531 11.5031L16.2188 5.34062C17.0969 4.4625 17.0969 3.0375 16.2188 2.15937L15.8406 1.78125C14.9625 0.903125 13.5375 0.903125 12.6594 1.78125ZM3.75 3C2.23125 3 1 4.23125 1 5.75V14.25C1 15.7688 2.23125 17 3.75 17H12.25C13.7687 17 15 15.7688 15 14.25V10.75C15 10.3344 14.6656 10 14.25 10C13.8344 10 13.5 10.3344 13.5 10.75V14.25C13.5 14.9406 12.9406 15.5 12.25 15.5H3.75C3.05937 15.5 2.5 14.9406 2.5 14.25V5.75C2.5 5.05937 3.05937 4.5 3.75 4.5H7.25C7.66563 4.5 8 4.16562 8 3.75C8 3.33437 7.66563 3 7.25 3H3.75Z" fill="var(--fill-0, #E90029)"/>
</g>
</svg>
