<svg preserveAspectRatio="none" width="100%" height="100%" overflow="visible" style="display: block;" viewBox="0 0 16 16" fill="none" xmlns="http://www.w3.org/2000/svg">
<g id="user-large" clip-path="url(#clip0_0_2788)">
<path id="Primary" d="M11.5 4.5C11.5 3.57174 11.1313 2.6815 10.4749 2.02513C9.8185 1.36875 8.92826 1 8 1C7.07174 1 6.1815 1.36875 5.52513 2.02513C4.86875 2.6815 4.5 3.57174 4.5 4.5C4.5 5.42826 4.86875 6.3185 5.52513 6.97487C6.1815 7.63125 7.07174 8 8 8C8.92826 8 9.8185 7.63125 10.4749 6.97487C11.1313 6.3185 11.5 5.42826 11.5 4.5ZM3.5 4.5C3.5 3.30653 3.97411 2.16193 4.81802 1.31802C5.66193 0.474106 6.80653 0 8 0C9.19347 0 10.3381 0.474106 11.182 1.31802C12.0259 2.16193 12.5 3.30653 12.5 4.5C12.5 5.69347 12.0259 6.83807 11.182 7.68198C10.3381 8.52589 9.19347 9 8 9C6.80653 9 5.66193 8.52589 4.81802 7.68198C3.97411 6.83807 3.5 5.69347 3.5 4.5ZM1 15H15C14.9781 12.7875 13.1781 11 10.9594 11H5.04063C2.82188 11 1.02187 12.7875 1 15ZM0 15.0406C0 12.2562 2.25625 10 5.04063 10H10.9594C13.7438 10 16 12.2562 16 15.0406C16 15.5719 15.5687 16 15.0406 16H0.959375C0.43125 16 0 15.5687 0 15.0406Z" fill="var(--fill-0, black)"/>
</g>
<defs>
<clipPath id="clip0_0_2788">
<rect width="16" height="16" fill="white"/>
</clipPath>
</defs>
</svg>
