<svg preserveAspectRatio="none" width="100%" height="100%" overflow="visible" style="display: block;" viewBox="0 0 17.9999 8.83302" fill="none" xmlns="http://www.w3.org/2000/svg">
<g id="Group">
<path id="Vector" d="M1.20639 4.42266L4.7694 0.860645C4.86048 0.766344 4.91087 0.640059 4.90973 0.508961C4.90859 0.377862 4.85601 0.252452 4.7633 0.159748C4.6706 0.0670439 4.5452 0.0144638 4.4141 0.0133246C4.283 0.0121854 4.1567 0.0625654 4.0624 0.153644L0.146393 4.06966C0.0526573 4.16342 0 4.29056 0 4.42315C0 4.55573 0.0526573 4.6829 0.146393 4.77666L4.0624 8.69265C4.1567 8.78373 4.283 8.83414 4.4141 8.833C4.5452 8.83186 4.6706 8.77928 4.7633 8.68657C4.85601 8.59387 4.90859 8.46846 4.90973 8.33736C4.91087 8.20626 4.86048 8.07995 4.7694 7.98565L1.20639 4.42266Z" fill="var(--fill-0, #E90029)"/>
<path id="Vector_2" d="M17.8535 4.06862L13.9385 0.152637C13.8924 0.104882 13.8372 0.0667813 13.7762 0.0405768C13.7152 0.0143723 13.6496 0.000595806 13.5832 1.88973e-05C13.5168 -0.000558011 13.451 0.0120794 13.3895 0.0372198C13.3281 0.0623603 13.2722 0.0994959 13.2253 0.146442C13.1784 0.193389 13.1412 0.249209 13.1161 0.310657C13.091 0.372105 13.0783 0.437932 13.0789 0.504322C13.0795 0.570712 13.0933 0.636344 13.1195 0.697346C13.1457 0.758348 13.1838 0.813515 13.2315 0.859638L16.7935 4.42162L13.2315 7.98363C13.1404 8.07793 13.0901 8.20422 13.0912 8.33532C13.0923 8.46641 13.1449 8.59182 13.2376 8.68453C13.3303 8.77723 13.4557 8.82981 13.5868 8.83095C13.7179 8.83209 13.8442 8.78171 13.9385 8.69063L17.8535 4.77462C17.9473 4.68085 17.9999 4.55371 17.9999 4.42113C17.9999 4.28855 17.9473 4.16138 17.8535 4.06762V4.06862Z" fill="var(--fill-0, #E90029)"/>
<path id="Vector_3" d="M5.6374 5.42363C6.18968 5.42363 6.6374 4.97591 6.6374 4.42363C6.6374 3.87134 6.18968 3.42363 5.6374 3.42363C5.08511 3.42363 4.6374 3.87134 4.6374 4.42363C4.6374 4.97591 5.08511 5.42363 5.6374 5.42363Z" fill="var(--fill-0, #E90029)"/>
<path id="Vector_4" d="M8.9984 5.42363C9.55068 5.42363 9.9984 4.97591 9.9984 4.42363C9.9984 3.87134 9.55068 3.42363 8.9984 3.42363C8.44611 3.42363 7.9984 3.87134 7.9984 4.42363C7.9984 4.97591 8.44611 5.42363 8.9984 5.42363Z" fill="var(--fill-0, #E90029)"/>
<path id="Vector_5" d="M12.3584 5.42363C12.9107 5.42363 13.3584 4.97591 13.3584 4.42363C13.3584 3.87134 12.9107 3.42363 12.3584 3.42363C11.8061 3.42363 11.3584 3.87134 11.3584 4.42363C11.3584 4.97591 11.8061 5.42363 12.3584 5.42363Z" fill="var(--fill-0, #E90029)"/>
</g>
</svg>
