<svg preserveAspectRatio="none" width="100%" height="100%" overflow="visible" style="display: block;" viewBox="0 0 18 18" fill="none" xmlns="http://www.w3.org/2000/svg">
<g id="Group">
<g id="Vector">
</g>
<g id="Group_2">
<path id="Vector_2" d="M9 17C10.5823 17 12.129 16.5308 13.4446 15.6518C14.7602 14.7727 15.7855 13.5233 16.391 12.0615C16.9965 10.5997 17.155 8.99113 16.8463 7.43928C16.5376 5.88743 15.7757 4.46197 14.6569 3.34315C13.538 2.22433 12.1126 1.4624 10.5607 1.15372C9.00887 0.84504 7.40034 1.00347 5.93853 1.60897C4.47672 2.21447 3.22729 3.23985 2.34824 4.55544C1.46919 5.87103 1 7.41775 1 9C1.00344 11.1207 1.8474 13.1535 3.34694 14.6531C4.84649 16.1526 6.87932 16.9966 9 17ZM9 1.947C10.395 1.947 11.7586 2.36065 12.9184 3.13565C14.0783 3.91064 14.9823 5.01217 15.5161 6.30094C16.0499 7.5897 16.1896 9.00783 15.9175 10.376C15.6453 11.7441 14.9736 13.0008 13.9872 13.9872C13.0008 14.9736 11.7441 15.6453 10.376 15.9175C9.00782 16.1896 7.5897 16.05 6.30093 15.5161C5.01217 14.9823 3.91064 14.0783 3.13564 12.9184C2.36065 11.7586 1.947 10.395 1.947 9C1.95017 7.13041 2.69427 5.33829 4.01628 4.01628C5.33829 2.69428 7.1304 1.95018 9 1.947Z" fill="var(--fill-0, #E90029)"/>
<path id="Vector_3" d="M6.338 10.992C6.43529 11.0064 6.53372 11.0118 6.632 11.008C7.1393 10.9678 7.6278 10.7981 8.05079 10.5151C8.47378 10.2322 8.81713 9.84551 9.048 9.392C9.538 8.641 10.305 7.79201 11.219 7.92301C12.166 8.07001 13.048 9.245 13.374 10.307C13.3917 10.3663 13.421 10.4216 13.4603 10.4694C13.4996 10.5173 13.548 10.5568 13.6028 10.5857C13.6576 10.6145 13.7176 10.6322 13.7792 10.6376C13.8409 10.6429 13.9031 10.636 13.962 10.617C14.0808 10.5797 14.18 10.497 14.2381 10.3868C14.2961 10.2767 14.3083 10.1481 14.272 10.029C13.864 8.67401 12.737 7.188 11.366 6.976C10.599 6.862 9.439 7.09001 8.28 8.85401C7.725 9.70301 7.088 10.127 6.5 10.046C5.749 9.932 5.063 9.01701 4.655 7.59701C4.62039 7.4758 4.53905 7.37331 4.42887 7.31208C4.31869 7.25085 4.1887 7.2359 4.0675 7.27051C3.9463 7.30512 3.84381 7.38646 3.78257 7.49663C3.72134 7.60681 3.70639 7.7368 3.741 7.858C4.249 9.686 5.196 10.829 6.338 10.992Z" fill="var(--fill-0, #E90029)"/>
</g>
</g>
</svg>
