<svg preserveAspectRatio="none" width="100%" height="100%" overflow="visible" style="display: block;" viewBox="0 0 12 12" fill="none" xmlns="http://www.w3.org/2000/svg">
<g id="arrow-right">
<path id="Primary" d="M11.0766 6.40944C11.1867 6.30397 11.25 6.15631 11.25 6.00162C11.25 5.84694 11.1867 5.70162 11.0766 5.59381L6.95156 1.65631C6.72656 1.44069 6.37031 1.45006 6.15703 1.67506C5.94375 1.90006 5.95078 2.25631 6.17578 2.46959L9.28359 5.43912H1.3125C1.00078 5.43912 0.75 5.68991 0.75 6.00162C0.75 6.31334 1.00078 6.56412 1.3125 6.56412H9.28359L6.17344 9.53131C5.94844 9.74694 5.94141 10.1008 6.15469 10.3258C6.36797 10.5508 6.72422 10.5579 6.94922 10.3446L11.0742 6.40709L11.0766 6.40944Z" fill="var(--fill-0, #E90029)"/>
</g>
</svg>
