<svg preserveAspectRatio="none" width="100%" height="100%" overflow="visible" style="display: block;" viewBox="0 0 18 17" fill="none" xmlns="http://www.w3.org/2000/svg">
<g id="magnifying-glass">
<path id="Primary" d="M13.0008 7.00078C13.0008 6.27851 12.8585 5.56331 12.5821 4.89602C12.3057 4.22873 11.9006 3.62242 11.3899 3.11169C10.8791 2.60097 10.2728 2.19584 9.60554 1.91944C8.93825 1.64304 8.22305 1.50078 7.50078 1.50078C6.77851 1.50078 6.06331 1.64304 5.39602 1.91944C4.72873 2.19584 4.12242 2.60097 3.61169 3.11169C3.10097 3.62242 2.69584 4.22873 2.41944 4.89602C2.14304 5.56331 2.00078 6.27851 2.00078 7.00078C2.00078 7.72305 2.14304 8.43825 2.41944 9.10554C2.69584 9.77283 3.10097 10.3791 3.61169 10.8899C4.12242 11.4006 4.72873 11.8057 5.39602 12.0821C6.06331 12.3585 6.77851 12.5008 7.50078 12.5008C8.22305 12.5008 8.93825 12.3585 9.60554 12.0821C10.2728 11.8057 10.8791 11.4006 11.3899 10.8899C11.9006 10.3791 12.3057 9.77283 12.5821 9.10554C12.8585 8.43825 13.0008 7.72305 13.0008 7.00078ZM11.7289 11.9383C10.5945 12.9133 9.11641 13.5008 7.50078 13.5008C3.91016 13.5008 1.00078 10.5914 1.00078 7.00078C1.00078 3.41016 3.91016 0.500782 7.50078 0.500782C11.0914 0.500782 14.0008 3.41016 14.0008 7.00078C14.0008 8.61641 13.4133 10.0945 12.4383 11.2289L16.8539 15.6477C17.0477 15.8414 17.0477 16.1602 16.8539 16.3539C16.6602 16.5477 16.3414 16.5477 16.1477 16.3539L11.7289 11.9383Z" fill="var(--fill-0, white)"/>
</g>
</svg>
