<svg preserveAspectRatio="none" width="100%" height="100%" overflow="visible" style="display: block;" viewBox="0 0 16 16" fill="none" xmlns="http://www.w3.org/2000/svg">
<g id="xmark-large">
<path id="Primary" d="M14.1469 1.14688C14.3406 0.953125 14.6594 0.953125 14.8531 1.14688C15.0469 1.34063 15.0469 1.65938 14.8531 1.85313L8.70625 8L14.8531 14.1469C15.0469 14.3406 15.0469 14.6594 14.8531 14.8531C14.6594 15.0469 14.3406 15.0469 14.1469 14.8531L8 8.70625L1.85313 14.8531C1.65938 15.0469 1.34063 15.0469 1.14688 14.8531C0.953125 14.6594 0.953125 14.3406 1.14688 14.1469L7.29375 8L1.14688 1.85313C0.953125 1.65938 0.953125 1.34063 1.14688 1.14688C1.34063 0.953125 1.65938 0.953125 1.85313 1.14688L8 7.29375L14.1469 1.14688Z" fill="var(--fill-0, black)"/>
</g>
</svg>
