<svg preserveAspectRatio="none" width="100%" height="100%" overflow="visible" style="display: block;" viewBox="0 0 36 36" fill="none" xmlns="http://www.w3.org/2000/svg">
<g id="Extended Warranty">
<path id="Vector" d="M25.4252 31.2098C25.053 31.1157 24.7035 30.9473 24.3974 30.7156C24.204 30.5841 24.1967 30.4318 24.371 30.2654C24.6516 30.0094 24.9747 29.8071 25.3264 29.6637C25.676 29.5093 26.0499 29.4157 26.431 29.3869C26.8008 29.3565 27.1736 29.387 27.5335 29.477C27.894 29.5543 28.2402 29.6874 28.5591 29.8723C28.8099 30.0174 28.8354 30.1907 28.6206 30.3796C28.3385 30.6425 28.0118 30.8534 27.6565 31.0033C27.3137 31.1626 26.946 31.2605 26.5694 31.2932C26.4517 31.3099 26.3325 31.3183 26.2136 31.3174C25.947 31.3158 25.6826 31.2791 25.4252 31.2098ZM9.43702 31.291C9.05977 31.2581 8.69139 31.1601 8.34771 31.0011C7.99145 30.8492 7.66306 30.6385 7.377 30.3774C7.16785 30.1885 7.18978 30.0152 7.44728 29.8701C7.76419 29.686 8.1082 29.5507 8.46631 29.4726C9.20409 29.2906 9.981 29.3562 10.6779 29.6593C11.0305 29.8022 11.3544 30.0067 11.6354 30.2632C11.8018 30.4296 11.7957 30.5819 11.609 30.7134C11.3005 30.9451 10.9489 31.1135 10.5746 31.2076C10.3178 31.2761 10.0542 31.3114 9.7884 31.313C9.67106 31.3144 9.55321 31.3075 9.43702 31.291ZM23.1346 29.4924C22.6662 28.8755 22.4421 28.1077 22.5043 27.3357C22.5355 26.9605 22.6247 26.5929 22.7722 26.2464C22.9183 25.8926 23.1178 25.563 23.363 25.2691C23.5429 25.0442 23.7108 25.0582 23.8615 25.2955C24.055 25.6221 24.1999 25.9769 24.292 26.3452C24.391 26.6988 24.4335 27.0656 24.4171 27.4323C24.3966 27.8119 24.3122 28.1836 24.1668 28.5348C24.0271 28.886 23.8308 29.2121 23.5848 29.4989C23.5582 29.5366 23.5235 29.5699 23.4838 29.5934C23.444 29.6168 23.4001 29.63 23.3542 29.6351C23.3086 29.6296 23.2649 29.6146 23.2268 29.589C23.1887 29.5634 23.1569 29.5281 23.1346 29.488V29.4924ZM12.4128 29.5011C12.1706 29.2128 11.9765 28.887 11.8374 28.537C11.6911 28.1858 11.6046 27.8121 11.5805 27.4323C11.5619 27.0655 11.6023 26.6983 11.7035 26.3452C11.7908 25.9754 11.9359 25.6221 12.1339 25.2977C12.2857 25.0604 12.4524 25.0465 12.639 25.2691C13.1283 25.8552 13.4303 26.5756 13.5021 27.3357C13.5334 27.7213 13.4929 28.1089 13.3835 28.4799C13.2853 28.8496 13.1101 29.1949 12.8696 29.4924C12.8447 29.5324 12.8107 29.5661 12.7708 29.5912C12.7309 29.6163 12.6859 29.6321 12.639 29.6373C12.5935 29.6313 12.5484 29.6154 12.5095 29.5912C12.4705 29.5669 12.4383 29.5349 12.4128 29.4968V29.5011ZM28.2341 27.9265C28.0092 27.8433 27.962 27.7018 28.0935 27.496C28.512 26.8587 29.125 26.3745 29.8417 26.1146C30.1986 25.9878 30.5742 25.9205 30.953 25.9148C31.3277 25.8968 31.7032 25.9414 32.062 26.0509C32.3128 26.1274 32.3718 26.2881 32.2268 26.5253C31.8026 27.1618 31.1922 27.6491 30.4786 27.9243C30.1208 28.0658 29.7389 28.1378 29.3542 28.1329C29.3358 28.134 29.3176 28.134 29.2992 28.1329C28.9332 28.1376 28.571 28.0654 28.2341 27.9221V27.9265ZM6.64348 28.1329C6.25876 28.1379 5.87677 28.0681 5.51904 27.9265C5.16286 27.8009 4.8318 27.6127 4.54174 27.3709C4.2365 27.137 3.97581 26.8507 3.77088 26.5253C3.62582 26.2881 3.68141 26.1296 3.93779 26.0531C4.29446 25.9442 4.66774 25.8974 5.04027 25.9148C5.42036 25.9217 5.79712 25.989 6.15593 26.1146C6.51088 26.2382 6.84221 26.422 7.13542 26.6571C7.43616 26.8925 7.69556 27.1761 7.90408 27.496C8.03564 27.7052 7.98724 27.8433 7.76572 27.9265C7.42816 28.0687 7.06467 28.1394 6.69838 28.1351C6.68141 28.1337 6.66461 28.1316 6.64787 28.1285L6.64348 28.1329ZM26.6968 27.0458C26.3946 26.8227 26.1417 26.5391 25.9545 26.2135C25.7471 25.8778 25.6055 25.5062 25.5372 25.1176C25.4708 24.7483 25.4666 24.3705 25.524 23.9997C25.5708 23.6218 25.6785 23.2541 25.8425 22.9104C25.9549 22.6473 26.1119 22.6112 26.3278 22.8204C26.6007 23.0711 26.8306 23.367 27.0042 23.6945C27.1891 24.0148 27.3227 24.3614 27.4039 24.7223C27.481 25.1031 27.4952 25.4943 27.4457 25.8796C27.4064 26.2489 27.3027 26.6063 27.136 26.9382C27.0809 27.0698 27.0054 27.1381 26.9098 27.1381C26.8316 27.1295 26.7588 27.0949 26.7012 27.0414L26.6968 27.0458ZM8.85723 26.9404C8.69484 26.6073 8.59337 26.2481 8.55415 25.8796C8.50467 25.4943 8.51885 25.1031 8.59588 24.7223C8.67596 24.3619 8.80887 24.0154 8.99119 23.6945C9.16502 23.3671 9.39271 23.0735 9.66542 22.8226C9.87456 22.6134 10.0338 22.6473 10.1508 22.9104C10.3155 23.254 10.4239 23.6239 10.4714 24.0019C10.5272 24.3731 10.5202 24.7512 10.4495 25.1198C10.3855 25.5081 10.2466 25.88 10.041 26.2157C9.85044 26.5389 9.59812 26.8219 9.29866 27.048C9.23594 27.1028 9.15774 27.1352 9.07465 27.1403C8.98994 27.1365 8.91859 27.0679 8.86162 26.936L8.85723 26.9404ZM31.491 23.958C31.5509 23.5779 31.6751 23.2115 31.8622 22.8753C32.0346 22.5469 32.2622 22.2491 32.532 21.9946C32.8031 21.7357 33.1127 21.5232 33.4522 21.3643C33.7871 21.2002 34.1448 21.0856 34.513 21.0261C34.7896 20.9935 34.9093 21.1163 34.8666 21.3885C34.8023 21.7658 34.6784 22.1304 34.4998 22.469C34.3247 22.8108 34.0998 23.1248 33.8322 23.4002C33.5635 23.6683 33.2459 23.8819 32.8966 24.0305C32.5468 24.187 32.1703 24.2767 31.7875 24.294C31.7707 24.2951 31.7539 24.2951 31.737 24.294C31.5413 24.2918 31.454 24.1807 31.4888 23.9558L31.491 23.958ZM4.21011 24.2962C3.82741 24.2781 3.45325 24.1885 3.10324 24.0327C2.75355 23.8836 2.43535 23.6701 2.16547 23.4024C1.8992 23.1263 1.67295 22.8124 1.49783 22.4712C1.31637 22.1339 1.19448 21.7687 1.13327 21.3907C1.09166 21.1185 1.20702 20.9946 1.48026 21.0283C1.84887 21.0859 2.20687 21.1984 2.54102 21.3643C2.88211 21.5204 3.19212 21.7355 3.46122 21.9968C3.7359 22.2485 3.96601 22.5468 4.13764 22.8775C4.32537 23.2136 4.45247 23.58 4.51319 23.9602C4.54355 24.1851 4.46297 24.2962 4.26282 24.2962C4.24625 24.2957 4.23089 24.2943 4.21451 24.2918L4.21011 24.2962ZM30.0174 24.1293C29.6447 24.0312 29.2929 23.8671 28.9786 23.6439C28.6576 23.4342 28.3857 23.158 28.1814 22.8335C27.975 22.5108 27.816 22.1604 27.7092 21.7926C27.5999 21.4306 27.5531 21.0524 27.5709 20.6747C27.5709 20.3846 27.7029 20.288 27.9728 20.3914C28.3233 20.5121 28.6515 20.69 28.9435 20.9185C29.2463 21.1427 29.5167 21.4067 29.7473 21.7047C29.9721 22.0044 30.1386 22.3431 30.2392 22.704C30.3552 23.0739 30.4049 23.4609 30.3864 23.8482C30.3751 24.0393 30.2847 24.1403 30.125 24.1403C30.0917 24.1395 30.0587 24.1345 30.0262 24.1271L30.0174 24.1293ZM5.5981 23.8526C5.59002 23.465 5.64311 23.0791 5.75622 22.7084C5.85592 22.3471 6.02465 22.0083 6.25036 21.7091C6.47697 21.4091 6.74625 21.1426 7.04977 20.9207C7.33963 20.6928 7.66354 20.5149 8.0117 20.3936C8.28831 20.2901 8.42677 20.3868 8.42677 20.6769C8.44427 21.0551 8.39527 21.4336 8.28183 21.7948C8.17971 22.1644 8.02045 22.5154 7.80965 22.8357C7.61075 23.1611 7.34274 23.4377 7.02342 23.6461C6.70812 23.8689 6.35572 24.033 5.98243 24.1315C5.94558 24.1402 5.9083 24.1467 5.87042 24.1469C5.7085 24.1412 5.61711 24.0415 5.60249 23.8504L5.5981 23.8526ZM29.7275 19.6271C29.3694 19.5007 29.0394 19.3054 28.7568 19.0517C28.4705 18.7986 28.2269 18.5011 28.0342 18.1711C27.831 17.8433 27.6816 17.485 27.5906 17.1103C27.549 16.8472 27.6601 16.7214 27.9266 16.7282C28.3039 16.7619 28.6755 16.8539 29.0247 17.0005C29.3716 17.1309 29.6942 17.3181 29.9801 17.5539C30.2745 17.795 30.5239 18.0862 30.7158 18.4148C30.9205 18.7403 31.0661 19.0996 31.1462 19.4756C31.1946 19.7005 31.0978 19.8125 30.8695 19.8226H30.7751C30.4188 19.8173 30.0653 19.7506 29.7319 19.6249L29.7275 19.6271ZM5.13251 19.8226C4.90762 19.8158 4.80744 19.6982 4.85579 19.4756C4.93808 19.1006 5.08275 18.7417 5.28404 18.4148C5.4766 18.0867 5.72588 17.7956 6.01976 17.5539C6.30616 17.3176 6.62945 17.1304 6.9773 17.0005C7.32446 16.8547 7.69383 16.7627 8.0688 16.7282C8.33866 16.7214 8.44979 16.8461 8.40481 17.1103C8.31192 17.4853 8.15966 17.8436 7.9546 18.1711C7.76356 18.5032 7.51965 18.8011 7.22986 19.0517C6.94684 19.3048 6.61693 19.5001 6.25915 19.6271C5.92683 19.7525 5.57551 19.8192 5.22035 19.8248L5.13251 19.8226ZM32.2246 19.2735C32.1854 18.9047 32.2109 18.5313 32.2992 18.1711C32.3827 17.794 32.528 17.4331 32.7297 17.1037C32.9313 16.7847 33.1844 16.5034 33.4786 16.267C33.7593 16.0275 34.0757 15.8313 34.4163 15.6894C34.6738 15.5769 34.8176 15.663 34.8468 15.9463C34.884 16.3183 34.8599 16.692 34.7721 17.0554C34.6917 17.4366 34.5485 17.8039 34.3483 18.1381C34.1563 18.4723 33.9021 18.7649 33.5994 19.0034C33.3121 19.2463 32.9768 19.4257 32.6155 19.5305C32.57 19.5449 32.5226 19.5534 32.4749 19.5547C32.3355 19.5524 32.2492 19.4569 32.2289 19.2713L32.2246 19.2735ZM3.38655 19.5305C3.02238 19.426 2.68217 19.2466 2.39168 19.0034C2.08986 18.7665 1.84029 18.4734 1.65376 18.1381C1.45353 17.8039 1.31032 17.4366 1.2299 17.0554C1.13779 16.6927 1.11148 16.3182 1.15303 15.9463C1.18115 15.663 1.32599 15.5781 1.58348 15.6894C1.92204 15.8301 2.23586 16.0264 2.51247 16.267C3.12118 16.7441 3.54106 17.4204 3.6984 18.1777C3.78735 18.5378 3.81362 18.9112 3.77527 19.2801C3.75278 19.469 3.67435 19.5612 3.5293 19.5612C3.48155 19.5568 3.43351 19.5455 3.38874 19.5283L3.38655 19.5305ZM29.8263 15.5357C29.4441 15.5428 29.0643 15.4721 28.7107 15.327C28.3435 15.1816 28.0014 14.9784 27.6982 14.7253C27.4021 14.4909 27.1487 14.207 26.9493 13.8863C26.8178 13.6716 26.8809 13.5171 27.1294 13.4361C27.4889 13.3374 27.8615 13.2929 28.2341 13.3043C28.6093 13.3127 28.9815 13.3807 29.3366 13.502C29.6952 13.6342 30.0296 13.8241 30.3271 14.0642C30.6299 14.2933 30.8886 14.5733 31.0913 14.8944C31.1237 14.9293 31.1466 14.9731 31.1572 15.0195C31.1678 15.066 31.1646 15.1146 31.1506 15.1601C31.1366 15.2056 31.1108 15.2462 31.076 15.2787C31.0411 15.3112 30.9994 15.3338 30.953 15.3446C30.6129 15.4801 30.2495 15.5478 29.8834 15.5444L29.8263 15.5357ZM5.05125 15.3358C4.82636 15.2368 4.78133 15.0846 4.91289 14.8856C5.11601 14.5634 5.37627 14.281 5.68155 14.0532C5.98005 13.8135 6.31513 13.6237 6.67422 13.491C7.02254 13.3689 7.38791 13.303 7.75694 13.2955C8.13098 13.2842 8.505 13.3288 8.86601 13.4273C9.12351 13.5105 9.1844 13.665 9.0461 13.8775C8.85196 14.2001 8.60027 14.4845 8.30379 14.7165C8.00069 14.9697 7.6586 15.1729 7.29135 15.3182C6.9343 15.4625 6.55194 15.5331 6.16691 15.5269H6.10981C5.74821 15.5323 5.38968 15.4668 5.05345 15.3336L5.05125 15.3358ZM32.0313 14.3431C31.8664 14.0026 31.7606 13.6365 31.7194 13.2604C31.6747 12.8852 31.6931 12.505 31.7743 12.136C31.8559 11.7706 31.9924 11.4198 32.1784 11.095C32.3597 10.7685 32.5865 10.4696 32.8527 10.2077C33.0618 10.0346 33.2277 10.0692 33.3446 10.3109C33.5132 10.6598 33.6217 11.035 33.6652 11.42C33.7213 11.7934 33.7142 12.1736 33.6433 12.5445C33.5747 12.9203 33.4359 13.2804 33.2348 13.6052C33.0386 13.9351 32.7791 14.2225 32.4705 14.4507C32.4162 14.5006 32.3465 14.5302 32.2729 14.5342C32.1874 14.5353 32.1066 14.4702 32.0335 14.3409L32.0313 14.3431ZM3.52491 14.4551C3.21808 14.2277 2.95889 13.94 2.76722 13.6096C2.56233 13.285 2.41871 12.9252 2.34336 12.5488C2.28011 12.177 2.27587 11.7976 2.33019 11.4244C2.37586 11.0417 2.47912 10.6698 2.63545 10.3175C2.76027 10.0758 2.92821 10.039 3.13399 10.2121C3.40535 10.4708 3.63538 10.7702 3.8148 11.0994C4.00497 11.4227 4.14305 11.7761 4.22329 12.1426C4.30526 12.5115 4.3244 12.8916 4.28039 13.267C4.23848 13.6432 4.13203 14.0094 3.96634 14.3497C3.89662 14.479 3.81477 14.543 3.72256 14.543C3.64934 14.5353 3.5799 14.502 3.5271 14.4507L3.52491 14.4551ZM26.7671 11.8966C26.3926 11.8081 26.0343 11.6608 25.7063 11.4595C25.3784 11.2703 25.083 11.0294 24.8322 10.7458C24.6523 10.5366 24.6867 10.3706 24.9442 10.2604C25.2839 10.1077 25.6471 10.0134 26.0182 9.98152C26.3921 9.93166 26.7716 9.94159 27.1426 10.0101C27.5193 10.0912 27.8802 10.2344 28.2099 10.4339C28.5361 10.6177 28.8255 10.8594 29.0643 11.1477C29.2093 11.3209 29.1765 11.4663 28.9808 11.5979C28.6564 11.7911 28.2948 11.9147 27.92 11.9603C27.7741 11.9774 27.6277 11.9843 27.4808 11.9844C27.2393 11.9851 27.0003 11.9548 26.7671 11.8922V11.8966ZM8.08856 11.9625C7.70929 11.918 7.34343 11.7943 7.01463 11.6001C6.81898 11.4685 6.78934 11.323 6.93777 11.1499C7.17603 10.8611 7.46553 10.6193 7.79208 10.4361C8.11779 10.2375 8.47364 10.0943 8.84624 10.0123C9.21733 9.94458 9.59669 9.93465 9.97069 9.98371C10.3446 10.0162 10.7104 10.1104 11.0534 10.2626C11.2974 10.3751 11.341 10.5388 11.1588 10.748C10.9111 11.0316 10.6169 11.2725 10.2913 11.4617C9.96077 11.6642 9.59947 11.8115 9.22179 11.8988C8.99262 11.9601 8.75625 11.9905 8.51901 11.9888C8.3753 11.986 8.23315 11.9755 8.09076 11.9559L8.08856 11.9625ZM29.923 10.4844C29.7207 10.1555 29.5687 9.79769 29.4727 9.42369C29.3709 9.0658 29.3333 8.69228 29.3607 8.32121C29.3843 7.94824 29.4709 7.58216 29.6177 7.23849C29.7582 6.89005 29.9475 6.56301 30.1799 6.26778C30.3666 6.05863 30.5332 6.0671 30.6872 6.28974C30.8975 6.61404 31.0541 6.96965 31.1506 7.34391C31.2571 7.7041 31.3018 8.08008 31.2824 8.45517C31.2711 8.83601 31.1841 9.20904 31.0254 9.55546C30.8808 9.91515 30.6647 10.2431 30.3929 10.5196C30.3317 10.5892 30.246 10.6328 30.1536 10.6404C30.1048 10.6345 30.0597 10.6161 30.0196 10.5877C29.9795 10.5592 29.9468 10.522 29.9252 10.4779L29.923 10.4844ZM5.60688 10.5196C5.33765 10.2409 5.12271 9.91347 4.97438 9.55546C4.81779 9.20835 4.73088 8.83353 4.71743 8.45298C4.70022 8.07796 4.74488 7.70234 4.8492 7.34171C4.94722 6.96907 5.10218 6.61536 5.3082 6.28974C5.469 6.06485 5.63122 6.06313 5.81113 6.26778C6.04745 6.56032 6.2371 6.88797 6.37335 7.23849C6.51769 7.58328 6.60692 7.94863 6.63689 8.32121C6.6655 8.69229 6.62786 9.06603 6.52488 9.42369C6.42891 9.79767 6.27685 10.1555 6.07467 10.4844C6.05216 10.528 6.01872 10.5647 5.97804 10.5921C5.93735 10.6194 5.89069 10.636 5.84187 10.6404C5.75032 10.6301 5.66748 10.5842 5.60908 10.513L5.60688 10.5196ZM27.1272 8.43102C26.3547 8.36247 25.6335 8.0123 25.1024 7.44713C24.8496 7.17257 24.6396 6.86144 24.4786 6.52473C24.3117 6.17986 24.1952 5.81327 24.1316 5.43543C24.0968 5.15657 24.2219 5.03927 24.4918 5.07526C24.8634 5.14315 25.2224 5.26916 25.5548 5.44861C25.8862 5.61706 26.1914 5.83255 26.4618 6.08769C26.7275 6.35894 26.9459 6.6731 27.1075 7.01668C27.2831 7.35402 27.396 7.71985 27.4435 8.0972C27.4637 8.31421 27.3652 8.43321 27.1426 8.43321L27.1272 8.43102ZM8.55415 8.0928C8.6033 7.71582 8.71612 7.35028 8.89017 7.01229C9.05176 6.66927 9.2694 6.35523 9.53365 6.0833C9.80407 5.82714 10.1101 5.61376 10.4429 5.44641C10.7773 5.26794 11.1375 5.14199 11.5102 5.07306C11.7801 5.0382 11.9063 5.15218 11.8726 5.43104C11.8092 5.80993 11.6889 6.17911 11.5168 6.52254C11.3621 6.86115 11.1538 7.17067 10.8997 7.44274C10.6398 7.72912 10.3234 7.96055 9.97069 8.11916C9.62741 8.29331 9.25438 8.39527 8.8704 8.42223H8.84844C8.63255 8.42336 8.53723 8.30875 8.55635 8.09061L8.55415 8.0928Z" fill="var(--fill-0, #E90029)"/>
</g>
</svg>
