<svg preserveAspectRatio="none" width="100%" height="100%" overflow="visible" style="display: block;" viewBox="0 0 16 16" fill="none" xmlns="http://www.w3.org/2000/svg">
<g id="tag">
<path id="Primary" d="M2.16484 7.33516V2.66328C2.16484 2.38828 2.38984 2.16328 2.66484 2.16328H7.33672C7.60234 2.16328 7.85547 2.26953 8.04297 2.45703L13.543 7.95703C13.9336 8.34766 13.9336 8.98203 13.543 9.37266L9.37109 13.5414C8.98047 13.932 8.34609 13.932 7.95547 13.5414L2.45547 8.04141C2.26797 7.85391 2.16172 7.60078 2.16172 7.33516H2.16484ZM1.16484 7.33516C1.16484 7.86641 1.37422 8.37578 1.74922 8.75078L7.24922 14.2508C8.03047 15.032 9.29609 15.032 10.0773 14.2508L14.2492 10.0789C15.0305 9.29766 15.0305 8.03203 14.2492 7.25078L8.74922 1.75078C8.37422 1.37578 7.86484 1.16641 7.33359 1.16641L2.66484 1.16328C1.83672 1.16328 1.16484 1.83516 1.16484 2.66328V7.33516ZM4.66484 5.41328C4.86376 5.41328 5.05452 5.33426 5.19517 5.19361C5.33583 5.05296 5.41484 4.86219 5.41484 4.66328C5.41484 4.46437 5.33583 4.2736 5.19517 4.13295C5.05452 3.9923 4.86376 3.91328 4.66484 3.91328C4.46593 3.91328 4.27517 3.9923 4.13451 4.13295C3.99386 4.2736 3.91484 4.46437 3.91484 4.66328C3.91484 4.86219 3.99386 5.05296 4.13451 5.19361C4.27517 5.33426 4.46593 5.41328 4.66484 5.41328Z" fill="var(--fill-0, #97989B)"/>
</g>
</svg>
