<svg preserveAspectRatio="none" width="100%" height="100%" overflow="visible" style="display: block;" viewBox="0 0 104 104" fill="none" xmlns="http://www.w3.org/2000/svg">
<g id="Vector" filter="url(#filter0_d_0_869)">
<path fill-rule="evenodd" clip-rule="evenodd" d="M44.1212 45.1363C43.5818 45.1363 43.1363 45.5818 43.1363 46.1212V57.9392C43.1363 58.4786 43.5818 58.9241 44.1212 58.9241H59.8786C60.418 58.9241 60.8634 58.4786 60.8634 57.9392V46.1212C60.8634 45.5818 60.418 45.1363 59.8786 45.1363H44.1212ZM44.1212 43.1667H59.8786C61.5058 43.1667 62.8331 44.4939 62.8331 46.1212V57.9392C62.8331 59.5665 61.5058 60.8938 59.8786 60.8938H44.1212C42.4939 60.8938 41.1667 59.5665 41.1667 57.9392V46.1212C41.1667 44.4939 42.4939 43.1667 44.1212 43.1667Z" fill="var(--fill-0, #E90029)"/>
<path fill-rule="evenodd" clip-rule="evenodd" d="M51.9999 51.813L61.2836 45.3144C61.7292 45.0025 62.3433 45.1109 62.6552 45.5565C62.9671 46.0021 62.8588 46.6161 62.4131 46.9281L52.5648 53.822C52.2257 54.0593 51.7743 54.0593 51.4353 53.822L41.5869 46.9281C41.1412 46.6161 41.0329 46.0021 41.3448 45.5565C41.6567 45.1109 42.2708 45.0025 42.7164 45.3144L51.9999 51.813Z" fill="var(--fill-0, #E90029)"/>
<path d="M68.8595 41.2C68.7568 41.0495 68.5826 40.9638 68.4007 40.9742C68.2188 40.9846 68.0556 41.0896 67.9705 41.2507C67.8856 41.4119 67.8912 41.6059 67.9854 41.7618C70.4475 45.6059 71.4408 50.209 70.7829 54.7265C70.125 59.2436 67.8602 63.3721 64.4039 66.3544C60.9477 69.3366 56.5318 70.9722 51.9671 70.9614C47.4021 70.9503 42.9945 69.2934 39.5529 66.2948H42.3862C42.5717 66.2948 42.7431 66.1959 42.8358 66.0352C42.9287 65.8745 42.9287 65.6765 42.8358 65.5158C42.7431 65.3551 42.5717 65.256 42.3862 65.256H38.2255C38.1573 65.2564 38.0899 65.27 38.0269 65.296C37.8999 65.3489 37.799 65.4499 37.7462 65.5767C37.7197 65.6396 37.7062 65.7072 37.7062 65.7754V69.9309C37.7114 70.113 37.8115 70.2792 37.9702 70.3688C38.1287 70.4584 38.3227 70.4584 38.4813 70.3688C38.64 70.2792 38.7401 70.113 38.7453 69.9309V66.9722C42.5623 70.3501 47.524 72.1448 52.6186 71.9908C57.7133 71.8367 62.5575 69.7452 66.1633 66.1427C69.3764 62.9082 71.3937 58.6769 71.8836 54.1443C72.3736 49.6117 71.307 45.0469 68.8593 41.2007L68.8595 41.2Z" fill="var(--fill-0, #E90029)"/>
<path d="M38.5929 38.5961C41.9959 35.2064 46.5562 33.2309 51.3562 33.0664C56.1566 32.9018 60.8412 34.5607 64.4684 37.7094H61.6373C61.497 37.7055 61.3611 37.7584 61.2605 37.8562C61.1598 37.954 61.1031 38.0883 61.1031 38.2286C61.1031 38.3688 61.1598 38.5033 61.2605 38.6011C61.3611 38.6989 61.497 38.7518 61.6373 38.7478H65.7958C65.803 38.7478 65.8093 38.744 65.8165 38.744C65.94 38.7427 66.0582 38.6937 66.1464 38.6072C66.1515 38.6026 66.1582 38.6009 66.1633 38.5963C66.1683 38.5916 66.1679 38.5874 66.1712 38.5837C66.2638 38.4889 66.3156 38.3615 66.3152 38.2288V34.0733C66.31 33.8912 66.2098 33.725 66.0512 33.6354C65.8927 33.546 65.6987 33.546 65.5401 33.6354C65.3814 33.7251 65.2813 33.8912 65.2761 34.0733V37.0317C61.6611 33.8289 57.0094 32.0421 52.1796 32.0007C47.3501 31.9594 42.6686 33.6663 38.999 36.8069C35.3297 39.9472 32.9198 44.3088 32.2145 49.0869C31.5092 53.865 32.5561 58.737 35.1618 62.8038C35.2621 62.96 35.438 63.0507 35.6234 63.042C35.8088 63.0332 35.9754 62.9262 36.0606 62.7612C36.1457 62.5963 36.1362 62.3986 36.0359 62.2424C33.7158 58.5958 32.7048 54.2684 33.1695 49.9712C33.6341 45.6739 35.5467 41.6626 38.5928 38.5964L38.5929 38.5961Z" fill="var(--fill-0, #E90029)"/>
</g>
<defs>
<filter id="filter0_d_0_869" x="-1.06923e-08" y="0" width="104" height="104" filterUnits="userSpaceOnUse" color-interpolation-filters="sRGB">
<feFlood flood-opacity="0" result="BackgroundImageFix"/>
<feColorMatrix in="SourceAlpha" type="matrix" values="0 0 0 0 0 0 0 0 0 0 0 0 0 0 0 0 0 0 127 0" result="hardAlpha"/>
<feOffset/>
<feGaussianBlur stdDeviation="16"/>
<feComposite in2="hardAlpha" operator="out"/>
<feColorMatrix type="matrix" values="0 0 0 0 0.913725 0 0 0 0 0 0 0 0 0 0.160784 0 0 0 1 0"/>
<feBlend mode="normal" in2="BackgroundImageFix" result="effect1_dropShadow_0_869"/>
<feBlend mode="normal" in="SourceGraphic" in2="effect1_dropShadow_0_869" result="shape"/>
</filter>
</defs>
</svg>
