<svg preserveAspectRatio="none" width="100%" height="100%" overflow="visible" style="display: block;" viewBox="0 0 14 14" fill="none" xmlns="http://www.w3.org/2000/svg">
<g id="sparkles">
<path id="Primary" d="M8.67578 2.99687C8.57031 3.03672 8.5 3.1375 8.5 3.25C8.5 3.3625 8.57031 3.46328 8.67578 3.50313L10 4L10.4969 5.32422C10.5367 5.42969 10.6375 5.5 10.75 5.5C10.8625 5.5 10.9633 5.42969 11.0031 5.32422L11.5 4L12.8242 3.50313C12.9297 3.46328 13 3.3625 13 3.25C13 3.1375 12.9297 3.03672 12.8242 2.99687L11.5 2.5L11.0031 1.17578C10.9633 1.07031 10.8625 1 10.75 1C10.6375 1 10.5367 1.07031 10.4969 1.17578L10 2.5L8.67578 2.99687ZM1.21797 6.625C1.08438 6.68594 1 6.81953 1 6.96719C1 7.11484 1.08438 7.24609 1.21797 7.30703L1.61641 7.49219L1.80625 7.57891L1.82031 7.58594L3.88984 8.54219L4.84609 10.6094L4.85312 10.6234L4.93984 10.8133L5.125 11.2141C5.18594 11.3477 5.31953 11.432 5.46484 11.432C5.61016 11.432 5.74375 11.3477 5.80469 11.2141L5.98984 10.8133L6.07656 10.6234L6.08359 10.6094L7.03984 8.53984L9.10938 7.58594L9.12344 7.57891L9.31328 7.49219L9.71406 7.30703C9.84766 7.24609 9.93203 7.1125 9.93203 6.96719C9.93203 6.82188 9.84766 6.68828 9.71406 6.62734L9.31328 6.44219L9.12344 6.35547L9.10938 6.34844L7.03984 5.39219L6.08594 3.32266L6.07891 3.30859L5.99219 3.11641L5.80703 2.71562C5.74609 2.58203 5.6125 2.49766 5.46719 2.49766C5.32188 2.49766 5.18828 2.58203 5.12734 2.71562L4.94219 3.11641L4.85547 3.30625L4.84844 3.32031L3.89219 5.38984L1.82266 6.34609L1.80859 6.35312L1.61875 6.43984L1.21797 6.625ZM3.16328 6.96484L4.36328 6.41172C4.60703 6.29922 4.80156 6.10469 4.91406 5.86094L5.46719 4.66094L6.02031 5.86094C6.13281 6.10469 6.32734 6.29922 6.57109 6.41172L7.77109 6.96484L6.57109 7.51797C6.32734 7.63047 6.13281 7.825 6.02031 8.06875L5.46719 9.26875L4.91406 8.06875C4.80156 7.825 4.60703 7.63047 4.36328 7.51797L3.16328 6.96719V6.96484ZM10 10L8.67578 10.4969C8.57031 10.5367 8.5 10.6375 8.5 10.75C8.5 10.8625 8.57031 10.9633 8.67578 11.0031L10 11.5L10.4969 12.8242C10.5367 12.9297 10.6375 13 10.75 13C10.8625 13 10.9633 12.9297 11.0031 12.8242L11.5 11.5L12.8242 11.0031C12.9297 10.9633 13 10.8625 13 10.75C13 10.6375 12.9297 10.5367 12.8242 10.4969L11.5 10L11.0031 8.67578C10.9633 8.57031 10.8625 8.5 10.75 8.5C10.6375 8.5 10.5367 8.57031 10.4969 8.67578L10 10Z" fill="var(--fill-0, #E90029)"/>
</g>
</svg>
