<svg preserveAspectRatio="none" width="100%" height="100%" overflow="visible" style="display: block;" viewBox="0 0 36 36" fill="none" xmlns="http://www.w3.org/2000/svg">
<g id="Update">
<path id="Vector" d="M14.9661 22.8542H7.38246V30.4378M21.033 13.1458H28.6167V5.56218M6.75 14.6677C7.60041 12.5629 9.02423 10.7388 10.8596 9.40289C12.6951 8.06693 14.8703 7.27233 17.1347 7.11002C19.399 6.94771 21.6621 7.42382 23.6693 8.48434C25.6765 9.54485 27.3445 11.1476 28.4864 13.1096M29.25 21.333C28.3996 23.4378 26.9758 25.2619 25.1404 26.5978C23.3049 27.9338 21.1319 28.7274 18.8676 28.8897C16.6032 29.052 14.3383 28.576 12.3311 27.5154C10.3239 26.4549 8.65473 24.8525 7.51281 22.8905" stroke="var(--stroke-0, #E90029)" stroke-width="1.5" stroke-linecap="round" stroke-linejoin="round"/>
</g>
</svg>
