<svg preserveAspectRatio="none" width="100%" height="100%" overflow="visible" style="display: block;" viewBox="0 0 16 16" fill="none" xmlns="http://www.w3.org/2000/svg">
<g id="bell" clip-path="url(#clip0_0_611)">
<path id="Primary" d="M7.49844 0.5C7.49844 0.225 7.72344 0 7.99844 0C8.27344 0 8.49844 0.225 8.49844 0.5V1.025C11.0266 1.275 12.9984 3.40625 12.9984 6V6.90938C12.9984 8.275 13.5422 9.58438 14.5078 10.5531L14.5953 10.6406C14.8547 10.9 15.0016 11.2531 15.0016 11.6187C15.0016 12.3844 14.3828 13.0031 13.6172 13.0031L2.38281 13C1.61719 13 0.998437 12.3813 0.998437 11.6156C0.998437 11.25 1.14531 10.8969 1.40469 10.6375L1.49219 10.55C2.45469 9.58438 2.99844 8.275 2.99844 6.90938V6C2.99844 3.40625 4.97031 1.275 7.49844 1.025V0.5ZM7.99844 2C5.78906 2 3.99844 3.79063 3.99844 6V6.90938C3.99844 8.54063 3.35156 10.1062 2.19531 11.2594L2.11094 11.3438C2.03906 11.4156 1.99844 11.5125 1.99844 11.6156C1.99844 11.8281 2.17031 12 2.38281 12H13.6141C13.8266 12 13.9984 11.8281 13.9984 11.6156C13.9984 11.5125 13.9578 11.4156 13.8859 11.3438L13.7984 11.2563C12.6453 10.1031 11.9953 8.5375 11.9953 6.90625V5.99687C11.9953 3.7875 10.2047 1.99688 7.99531 1.99688L7.99844 2ZM7.05469 14.3344C7.19219 14.7219 7.56406 15 7.99844 15C8.43281 15 8.80469 14.7219 8.94219 14.3344C9.03281 14.075 9.32031 13.9375 9.57969 14.0281C9.83906 14.1187 9.97656 14.4062 9.88594 14.6656C9.61094 15.4437 8.87031 16 7.99844 16C7.12656 16 6.38594 15.4437 6.11094 14.6656C6.02031 14.4062 6.15469 14.1187 6.41719 14.0281C6.67969 13.9375 6.96406 14.0719 7.05469 14.3344Z" fill="var(--fill-0, #97989B)"/>
</g>
<defs>
<clipPath id="clip0_0_611">
<rect width="16" height="16" fill="white"/>
</clipPath>
</defs>
</svg>
