<svg preserveAspectRatio="none" width="100%" height="100%" overflow="visible" style="display: block;" viewBox="0 0 11.908 11.908" fill="none" xmlns="http://www.w3.org/2000/svg">
<g id="pen-to-square" clip-path="url(#clip0_0_627)">
<path id="Primary" d="M10.3359 1.28848L10.6195 1.57207C10.8398 1.79238 10.8398 2.14863 10.6195 2.3666L9.9375 3.05098L8.85703 1.97051L9.53906 1.28848C9.75938 1.06816 10.1156 1.06816 10.3336 1.28848H10.3359ZM4.91719 5.9127L8.0625 2.76504L9.14297 3.84551L5.99531 6.99082C5.92734 7.05879 5.84297 7.10801 5.75156 7.13379L4.38047 7.5252L4.77188 6.1541C4.79766 6.0627 4.84688 5.97832 4.91484 5.91035L4.91719 5.9127ZM8.74453 0.493945L4.12031 5.11582C3.91641 5.31973 3.76875 5.57051 3.69141 5.84473L3.02109 8.18848C2.96484 8.38535 3.01875 8.59629 3.16406 8.7416C3.30938 8.88691 3.52031 8.94082 3.71719 8.88457L6.06094 8.21426C6.3375 8.13457 6.58828 7.98692 6.78984 7.78535L11.4141 3.16348C12.0727 2.50488 12.0727 1.43613 11.4141 0.777539L11.1305 0.493945C10.4719 -0.164648 9.40313 -0.164648 8.74453 0.493945ZM2.0625 1.40801C0.923438 1.40801 0 2.33145 0 3.47051V9.84551C0 10.9846 0.923438 11.908 2.0625 11.908H8.4375C9.57656 11.908 10.5 10.9846 10.5 9.84551V7.22051C10.5 6.90879 10.2492 6.65801 9.9375 6.65801C9.62578 6.65801 9.375 6.90879 9.375 7.22051V9.84551C9.375 10.3635 8.95547 10.783 8.4375 10.783H2.0625C1.54453 10.783 1.125 10.3635 1.125 9.84551V3.47051C1.125 2.95254 1.54453 2.53301 2.0625 2.53301H4.6875C4.99922 2.53301 5.25 2.28223 5.25 1.97051C5.25 1.65879 4.99922 1.40801 4.6875 1.40801H2.0625Z" fill="var(--fill-0, white)"/>
</g>
<defs>
<clipPath id="clip0_0_627">
<rect width="11.908" height="11.908" fill="white"/>
</clipPath>
</defs>
</svg>
