<svg preserveAspectRatio="none" width="100%" height="100%" overflow="visible" style="display: block;" viewBox="0 0 18 18" fill="none" xmlns="http://www.w3.org/2000/svg">
<g id="Group">
<g id="Vector">
</g>
<g id="Group_2">
<path id="Vector_2" d="M6.039 2.0735e-06C6.83224 -0.000655506 7.61782 0.155099 8.35081 0.458354C9.08379 0.76161 9.74978 1.20641 10.3107 1.76732C10.8716 2.32822 11.3164 2.99422 11.6196 3.7272C11.9229 4.46018 12.0787 5.24576 12.078 6.039C12.0787 6.83224 11.9229 7.61782 11.6196 8.35081C11.3164 9.08379 10.8716 9.74978 10.3107 10.3107C9.74978 10.8716 9.08379 11.3164 8.35081 11.6196C7.61782 11.9229 6.83224 12.0787 6.039 12.078C5.24576 12.0787 4.46018 11.9229 3.7272 11.6196C2.99422 11.3164 2.32822 10.8716 1.76732 10.3107C1.20641 9.74978 0.76161 9.08379 0.458354 8.35081C0.155099 7.61782 -0.000655506 6.83224 2.0735e-06 6.039C-0.000655506 5.24576 0.155099 4.46018 0.458354 3.7272C0.76161 2.99422 1.20641 2.32822 1.76732 1.76732C2.32822 1.20641 2.99422 0.76161 3.7272 0.458354C4.46018 0.155099 5.24576 -0.000655506 6.039 2.0735e-06ZM6.039 11.263C6.72518 11.2635 7.40472 11.1288 8.03876 10.8664C8.67281 10.6041 9.2489 10.2193 9.7341 9.7341C10.2193 9.2489 10.6041 8.67281 10.8664 8.03876C11.1288 7.40472 11.2635 6.72518 11.263 6.039C11.2635 5.35283 11.1288 4.67328 10.8664 4.03924C10.6041 3.4052 10.2193 2.8291 9.7341 2.3439C9.2489 1.85871 8.67281 1.47393 8.03876 1.21158C7.40472 0.94924 6.72518 0.814476 6.039 0.815002C5.35283 0.814476 4.67328 0.94924 4.03924 1.21158C3.4052 1.47393 2.8291 1.85871 2.3439 2.3439C1.85871 2.8291 1.47393 3.4052 1.21158 4.03924C0.94924 4.67328 0.814476 5.35283 0.815002 6.039C0.814476 6.72518 0.94924 7.40472 1.21158 8.03876C1.47393 8.67281 1.85871 9.2489 2.3439 9.7341C2.8291 10.2193 3.4052 10.6041 4.03924 10.8664C4.67328 11.1288 5.35283 11.2635 6.039 11.263Z" fill="var(--fill-0, #E90029)"/>
<path id="Vector_3" d="M9.92245 11.833L11.9921 9.67097C12.0673 9.59514 12.1692 9.55186 12.2759 9.55046C12.3826 9.54906 12.4857 9.58964 12.5628 9.66347L17.7038 14.585C17.7818 14.6596 17.8269 14.7622 17.8293 14.8701C17.8316 14.978 17.791 15.0824 17.7164 15.1604L15.6515 17.3174C15.5769 17.3954 15.4743 17.4405 15.3664 17.4428C15.2585 17.4452 15.154 17.4046 15.0761 17.3299L9.935 12.4084C9.85703 12.3338 9.8119 12.2312 9.80955 12.1233C9.80719 12.0154 9.8478 11.911 9.92245 11.833ZM12.2953 10.5329L10.7933 12.1019L15.3442 16.4584L16.8469 14.8887L12.2953 10.5329Z" fill="var(--fill-0, #E90029)"/>
<path id="Vector_4" d="M11.254 11.426C11.1504 11.4263 11.0506 11.3869 10.975 11.316L9.817 10.23C9.77787 10.1935 9.74634 10.1496 9.7242 10.1008C9.70206 10.0521 9.68976 9.99945 9.68799 9.94594C9.68623 9.89244 9.69504 9.83911 9.71392 9.78901C9.73279 9.73892 9.76137 9.69304 9.798 9.654C9.83454 9.61487 9.87844 9.58334 9.92718 9.5612C9.97592 9.53906 10.0286 9.52676 10.0821 9.52499C10.1356 9.52323 10.1889 9.53204 10.239 9.55092C10.2891 9.56979 10.335 9.59837 10.374 9.635L11.538 10.722C11.5771 10.7585 11.6087 10.8024 11.6308 10.8512C11.6529 10.8999 11.6652 10.9526 11.667 11.0061C11.6688 11.0596 11.66 11.1129 11.6411 11.163C11.6222 11.2131 11.5936 11.259 11.557 11.298C11.5182 11.3393 11.4712 11.372 11.419 11.3941C11.3669 11.4161 11.3106 11.427 11.254 11.426Z" fill="var(--fill-0, #E90029)"/>
<path id="Vector_5" d="M6.306 9.789C6.24683 9.79429 6.18763 9.77924 6.13818 9.74633C6.08872 9.71342 6.05197 9.66462 6.034 9.608L4.86 3.714L3.848 6.399C3.82596 6.44893 3.7891 6.49088 3.74241 6.51914C3.69572 6.5474 3.64146 6.56062 3.587 6.557H0.906002C0.873361 6.56439 0.839475 6.56433 0.806858 6.55684C0.774241 6.54935 0.743728 6.53461 0.717582 6.51372C0.691436 6.49283 0.670327 6.46632 0.65582 6.43616C0.641313 6.40601 0.633781 6.37297 0.633781 6.3395C0.633781 6.30604 0.641313 6.273 0.65582 6.24284C0.670327 6.21268 0.691436 6.18617 0.717582 6.16528C0.743728 6.14439 0.774241 6.12965 0.806858 6.12216C0.839475 6.11467 0.873361 6.11461 0.906002 6.122H3.394L4.684 2.682C4.7087 2.63191 4.74777 2.59032 4.79622 2.56254C4.84467 2.53475 4.90029 2.52203 4.956 2.526C5.01192 2.52384 5.06694 2.5405 5.11227 2.57332C5.15759 2.60613 5.1906 2.65321 5.206 2.707L6.325 8.393L7.368 4.507C7.38321 4.45522 7.41463 4.40968 7.45766 4.37709C7.50068 4.34451 7.55303 4.3266 7.607 4.326C7.66113 4.31842 7.71628 4.3277 7.76494 4.35257C7.81361 4.37744 7.85344 4.4167 7.879 4.465L8.705 6.126H11.215C11.2476 6.11861 11.2815 6.11867 11.3141 6.12616C11.3468 6.13365 11.3773 6.14839 11.4034 6.16928C11.4296 6.19017 11.4507 6.21668 11.4652 6.24684C11.4797 6.277 11.4872 6.31004 11.4872 6.3435C11.4872 6.37697 11.4797 6.41001 11.4652 6.44016C11.4507 6.47032 11.4296 6.49683 11.4034 6.51772C11.3773 6.53861 11.3468 6.55335 11.3141 6.56084C11.2815 6.56833 11.2476 6.56839 11.215 6.561H8.544C8.49355 6.56322 8.44348 6.5514 8.39934 6.52687C8.3552 6.50233 8.31874 6.46603 8.294 6.422L7.729 5.283L6.564 9.629C6.54177 9.6783 6.50536 9.71985 6.4594 9.74834C6.41345 9.77684 6.36004 9.791 6.306 9.789Z" fill="var(--fill-0, #E90029)"/>
<path id="Vector_6" d="M6.282 9.871C6.20954 9.87114 6.13892 9.84813 6.08046 9.80532C6.022 9.7625 5.97874 9.70213 5.957 9.633L4.836 4.006L3.921 6.432C3.89374 6.49331 3.84928 6.5454 3.79302 6.58196C3.73676 6.61852 3.6711 6.63799 3.604 6.638H0.914002C0.834437 6.638 0.758131 6.6064 0.70187 6.55013C0.645609 6.49387 0.614002 6.41757 0.614002 6.338C0.614002 6.25844 0.645609 6.18213 0.70187 6.12587C0.758131 6.06961 0.834437 6.038 0.914002 6.038H3.338L4.614 2.638C4.64382 2.57764 4.69001 2.52687 4.7473 2.49151C4.80459 2.45614 4.87068 2.4376 4.938 2.438H4.96C5.0332 2.43646 5.10485 2.45916 5.16381 2.50257C5.22277 2.54597 5.26573 2.60765 5.286 2.678V2.685L6.338 8.031L7.292 4.478C7.31141 4.4103 7.35196 4.35058 7.40774 4.30758C7.46352 4.26457 7.53159 4.24054 7.602 4.239H7.644C7.70719 4.23887 7.76921 4.25604 7.82333 4.28865C7.87744 4.32126 7.9216 4.36807 7.951 4.424L8.751 6.04H11.203C11.2826 6.04 11.3589 6.07161 11.4151 6.12787C11.4714 6.18413 11.503 6.26044 11.503 6.34C11.503 6.41957 11.4714 6.49587 11.4151 6.55213C11.3589 6.60839 11.2826 6.64 11.203 6.64H8.55C8.48487 6.6424 8.42034 6.62677 8.36352 6.59483C8.30671 6.56289 8.25981 6.51589 8.228 6.459L7.75 5.509L6.641 9.651V9.656C6.61348 9.72063 6.56725 9.77554 6.50826 9.81367C6.44928 9.85181 6.38023 9.87143 6.31 9.87L6.282 9.871ZM6.112 9.588C6.12396 9.6236 6.14681 9.65453 6.17732 9.67643C6.20783 9.69832 6.24445 9.71007 6.282 9.71H6.308C6.3456 9.71128 6.38274 9.70143 6.41477 9.68169C6.44679 9.66194 6.47227 9.63317 6.488 9.599L7.706 5.057L8.365 6.385C8.38212 6.41618 8.40753 6.44201 8.43841 6.45966C8.46929 6.47731 8.50445 6.48608 8.54 6.485H11.225H11.234C11.2548 6.4897 11.2764 6.48967 11.2971 6.4849C11.3179 6.48012 11.3373 6.47074 11.354 6.45744C11.3706 6.44414 11.3841 6.42726 11.3933 6.40805C11.4025 6.38885 11.4073 6.36781 11.4073 6.3465C11.4073 6.32519 11.4025 6.30416 11.3933 6.28495C11.3841 6.26575 11.3706 6.24887 11.354 6.23557C11.3373 6.22226 11.3179 6.21288 11.2971 6.20811C11.2764 6.20334 11.2548 6.2033 11.234 6.208H11.225H8.657L7.81 4.508C7.79444 4.47792 7.77092 4.45268 7.742 4.43505C7.71308 4.41742 7.67987 4.40806 7.646 4.408H7.621H7.611C7.57448 4.40823 7.539 4.42023 7.50982 4.4422C7.48064 4.46417 7.45932 4.49496 7.449 4.53L6.316 8.75L5.13 2.727C5.11905 2.69134 5.09666 2.66026 5.0663 2.63858C5.03594 2.61689 4.99929 2.6058 4.962 2.607H4.938C4.90128 2.60692 4.86524 2.61696 4.83384 2.63601C4.80244 2.65506 4.7769 2.68239 4.76 2.715L3.45 6.203H0.897002H0.888002C0.867218 6.1983 0.845641 6.19834 0.824873 6.20311C0.804104 6.20788 0.784675 6.21726 0.768028 6.23057C0.75138 6.24387 0.737939 6.26075 0.728702 6.27995C0.719466 6.29915 0.714669 6.32019 0.714669 6.3415C0.714669 6.36281 0.719466 6.38385 0.728702 6.40305C0.737939 6.42226 0.75138 6.43913 0.768028 6.45244C0.784675 6.46574 0.804104 6.47512 0.824873 6.4799C0.845641 6.48467 0.867218 6.4847 0.888002 6.48H0.897002H3.597C3.63456 6.48242 3.67196 6.4734 3.70428 6.45411C3.73659 6.43483 3.7623 6.4062 3.778 6.372L4.889 3.425L6.112 9.588Z" fill="var(--fill-0, #E90029)"/>
</g>
</g>
</svg>
