<svg preserveAspectRatio="none" width="100%" height="100%" overflow="visible" style="display: block;" viewBox="0 0 12.0183 15.9986" fill="none" xmlns="http://www.w3.org/2000/svg">
<g id="Group">
<path id="Vector" fill-rule="evenodd" clip-rule="evenodd" d="M1.49029 9.36329C1.805 9.36321 2.11166 9.46271 2.36637 9.64755C2.62108 9.83238 2.81078 10.0931 2.90829 10.3923H3.07329L4.43529 8.43629H11.9993V9.36229H4.91829L3.55629 11.3183H2.90829C2.82294 11.5795 2.66705 11.8121 2.45782 11.9903C2.24859 12.1686 1.99417 12.2855 1.72266 12.3282C1.45116 12.3709 1.17313 12.3377 0.919296 12.2323C0.66546 12.1269 0.445692 11.9534 0.284268 11.731C0.122843 11.5086 0.0260439 11.2458 0.00456193 10.9718C-0.01692 10.6978 0.0377515 10.4232 0.162538 10.1783C0.287324 9.93345 0.477368 9.72783 0.711679 9.58417C0.945989 9.44052 1.21545 9.36342 1.49029 9.36329ZM1.49029 10.0773C1.33661 10.0773 1.18639 10.1229 1.05861 10.2082C0.930836 10.2936 0.831246 10.415 0.772437 10.5569C0.713627 10.6989 0.69824 10.8552 0.728221 11.0059C0.758201 11.1566 0.832204 11.295 0.940869 11.4037C1.04953 11.5124 1.18798 11.5864 1.33871 11.6164C1.48943 11.6463 1.64566 11.631 1.78764 11.5721C1.92961 11.5133 2.05096 11.4137 2.13634 11.286C2.22172 11.1582 2.26729 11.008 2.26729 10.8543C2.26729 10.7523 2.24719 10.6512 2.20815 10.5569C2.1691 10.4627 2.11186 10.377 2.03971 10.3049C1.96756 10.2327 1.88191 10.1755 1.78764 10.1364C1.69337 10.0974 1.59233 10.0773 1.49029 10.0773ZM5.19929 13.7303C5.04561 13.7303 4.89539 13.7759 4.76761 13.8612C4.63984 13.9466 4.54025 14.068 4.48144 14.2099C4.42263 14.3519 4.40724 14.5082 4.43722 14.6589C4.4672 14.8096 4.5412 14.948 4.64987 15.0567C4.75853 15.1654 4.89698 15.2394 5.04771 15.2694C5.19843 15.2993 5.35466 15.284 5.49664 15.2251C5.63861 15.1663 5.75996 15.0667 5.84534 14.939C5.93072 14.8112 5.97629 14.661 5.97629 14.5073C5.97629 14.3012 5.89443 14.1036 5.74871 13.9579C5.603 13.8122 5.40536 13.7303 5.19929 13.7303ZM6.79929 11.2563L5.65729 12.5063V13.0903C5.99456 13.2005 6.28148 13.4273 6.46651 13.7301C6.65153 14.0328 6.72253 14.3916 6.66675 14.742C6.61097 15.0924 6.43206 15.4114 6.16217 15.6417C5.89228 15.8721 5.5491 15.9986 5.19429 15.9986C4.83948 15.9986 4.4963 15.8721 4.22642 15.6417C3.95653 15.4114 3.77762 15.0924 3.72183 14.742C3.66605 14.3916 3.73705 14.0328 3.92208 13.7301C4.1071 13.4273 4.39402 13.2005 4.73129 13.0903V12.1473L6.39129 10.3303H12.0153V11.2563H6.79929Z" fill="var(--fill-0, #E90029)"/>
<path id="Vector_2" fill-rule="evenodd" clip-rule="evenodd" d="M1.49029 6.63429C1.21545 6.63416 0.945989 6.55806 0.711679 6.41441C0.477368 6.27075 0.287324 6.06513 0.162538 5.82024C0.0377515 5.57536 -0.01692 5.30075 0.00456193 5.02675C0.0260439 4.75275 0.122843 4.49002 0.284268 4.26758C0.445692 4.04513 0.66546 3.87164 0.919296 3.76625C1.17313 3.66087 1.45116 3.62769 1.72266 3.6704C1.99417 3.7131 2.24859 3.83002 2.45782 4.00824C2.66705 4.18645 2.82294 4.41904 2.90829 4.68029H3.55629L4.91829 6.63629H11.9993V7.56229H4.43529L3.07329 5.60629H2.90829C2.81078 5.90551 2.62108 6.1662 2.36637 6.35104C2.11166 6.53587 1.805 6.63437 1.49029 6.63429ZM1.49029 5.92229C1.64416 5.92229 1.79458 5.87666 1.92252 5.79117C2.05047 5.70569 2.15018 5.58418 2.20907 5.44202C2.26795 5.29986 2.28336 5.14343 2.25334 4.99251C2.22332 4.84159 2.14923 4.70297 2.04042 4.59416C1.93161 4.48536 1.79299 4.41126 1.64207 4.38124C1.49115 4.35122 1.33472 4.36663 1.19256 4.42551C1.0504 4.4844 0.928895 4.58412 0.843408 4.71206C0.75792 4.84 0.712291 4.99042 0.712291 5.14429C0.712159 5.2465 0.732193 5.34772 0.771245 5.44217C0.810296 5.53662 0.867598 5.62244 0.939868 5.69471C1.01214 5.76698 1.09796 5.82429 1.19241 5.86334C1.28686 5.90239 1.38809 5.92242 1.49029 5.92229ZM5.97329 1.49129C5.97329 1.33761 5.92772 1.18739 5.84234 1.05961C5.75696 0.931835 5.63561 0.832245 5.49364 0.773436C5.35166 0.714627 5.19543 0.699239 5.04471 0.72922C4.89398 0.759201 4.75553 0.833203 4.64687 0.941868C4.5382 1.05053 4.4642 1.18898 4.43422 1.33971C4.40424 1.49043 4.41963 1.64666 4.47844 1.78864C4.53725 1.93061 4.63684 2.05196 4.76461 2.13734C4.89239 2.22272 5.04261 2.26829 5.19629 2.26829C5.29833 2.26829 5.39937 2.24819 5.49364 2.20914C5.58791 2.1701 5.67356 2.11286 5.74571 2.04071C5.81786 1.96856 5.8751 1.88291 5.91415 1.78864C5.95319 1.69437 5.97329 1.59333 5.97329 1.49129ZM12.0183 4.74229V5.66829H6.39429L4.73429 3.85129V2.90829C4.39702 2.79811 4.1101 2.57127 3.92508 2.26853C3.74005 1.96578 3.66905 1.60698 3.72483 1.25658C3.78062 0.906189 3.95953 0.587171 4.22941 0.35685C4.4993 0.126528 4.84248 0 5.19729 0C5.5521 0 5.89528 0.126528 6.16517 0.35685C6.43506 0.587171 6.61397 0.906189 6.66975 1.25658C6.72553 1.60698 6.65453 1.96578 6.46951 2.26853C6.28448 2.57127 5.99756 2.79811 5.66029 2.90829V3.49229L6.79929 4.74229H12.0183Z" fill="var(--fill-0, #E90029)"/>
</g>
</svg>
