<svg preserveAspectRatio="none" width="100%" height="100%" overflow="visible" style="display: block;" viewBox="0 0 20 24" fill="none" xmlns="http://www.w3.org/2000/svg">
<g id="circle-check">
<path id="Primary" d="M10 22C12.6522 22 15.1957 20.9464 17.0711 19.0711C18.9464 17.1957 20 14.6522 20 12C20 9.34784 18.9464 6.8043 17.0711 4.92893C15.1957 3.05357 12.6522 2 10 2C7.34784 2 4.8043 3.05357 2.92893 4.92893C1.05357 6.8043 0 9.34784 0 12C0 14.6522 1.05357 17.1957 2.92893 19.0711C4.8043 20.9464 7.34784 22 10 22ZM14.4141 10.1641L9.41406 15.1641C9.04688 15.5312 8.45313 15.5312 8.08984 15.1641L5.58984 12.6641C5.22266 12.2969 5.22266 11.7031 5.58984 11.3398C5.95703 10.9766 6.55078 10.9727 6.91406 11.3398L8.75 13.1758L13.0859 8.83594C13.4531 8.46875 14.0469 8.46875 14.4102 8.83594C14.7734 9.20312 14.7773 9.79687 14.4102 10.1602L14.4141 10.1641Z" fill="var(--fill-0, #E90029)"/>
</g>
</svg>
