<svg preserveAspectRatio="none" width="100%" height="100%" overflow="visible" style="display: block;" viewBox="0 0 185.737 33" fill="none" xmlns="http://www.w3.org/2000/svg">
<g id="Keysight Logo" clip-path="url(#clip0_0_4408)">
<g id="Vector">
<path d="M42.867 17.0227C42.5402 17.0227 41.8121 16.6107 41.316 14.6584C40.5144 11.4925 40.1025 8.87487 38.7409 8.87487C37.3794 8.87487 36.7184 11.5362 35.8806 14.669C35.4058 16.516 34.8885 17.0333 34.0709 17.0333C33.2534 17.0333 32.5199 16.6639 31.3372 11.831C30.2876 7.60916 29.6127 0 26.1871 0C22.7615 0 21.7289 9.95216 21.2903 11.8725C20.7517 14.2262 19.4327 17.0227 17.7338 17.0227C16.0348 17.0227 15.1587 15.0704 14.6467 12.9594C13.8653 9.79355 12.9796 5.10755 10.7314 5.10755C8.48313 5.10755 7.74435 8.94938 6.75329 13.1808C6.16248 15.6612 5.28639 17.0227 3.58742 17.0227H0C0.455119 17.2506 0.845463 17.5895 1.13497 18.0081C1.42447 18.4267 1.6038 18.9116 1.65639 19.4178C2.21526 22.9531 2.64852 25.1662 3.90464 25.1662C5.16077 25.1662 5.60787 23.3512 6.33174 20.3759C6.864 18.0755 7.73584 17.0195 8.76948 17.0195C10.3205 17.0195 11.0177 18.8664 11.8725 22.4485C13.5289 29.519 13.8951 33.0021 16.5894 33.0021C19.2837 33.0021 19.6765 29.5723 21.4543 22.4485C22.225 19.388 23.7025 17.0195 25.4015 17.0195C27.1005 17.0195 28.3034 19.2677 28.9367 21.0721C30.2663 24.9874 30.8891 26.4543 32.3666 26.4543C33.8442 26.4543 34.6883 24.6915 35.9753 20.4068C36.7875 17.7689 36.9334 17.0195 39.3317 17.0195L42.867 17.0227Z" fill="#E90029"/>
<path d="M62.7383 26.5405L53.6314 16.0721V26.5405H50.0535V5.08626H53.6314V14.4157L62.0741 5.08626H66.644L57.3561 15.2279L67.4552 26.5405H62.7383Z" fill="var(--fill-0, black)"/>
<path d="M81.8613 5.08626V8.51613H72.765V13.5609H80.8702V16.9907H72.765V23.1117H81.8624V26.5416H69.1872V5.08626H81.8613Z" fill="var(--fill-0, black)"/>
<path d="M87.5075 5.08626L92.9216 13.6024L98.2719 5.08626H102.428L94.6568 17.2122V26.5416H91.0896V17.2122L83.16 5.08626H87.5075Z" fill="var(--fill-0, black)"/>
<path d="M102.472 19.6084H106.008C106.008 21.8982 107.855 23.4811 110.43 23.4811C113.005 23.4811 114.556 22.2675 114.556 20.4525C114.556 15.6292 102.726 18.7216 102.726 10.8719C102.726 7.33665 105.786 4.79352 109.987 4.79352C114.926 4.79352 117.438 7.95939 117.438 11.5372H113.756C113.683 9.62748 112.205 8.18081 109.841 8.18081C107.667 8.18081 106.232 9.23574 106.232 10.7985C106.232 15.262 118.105 12.128 118.105 20.4227C118.105 24.1485 114.823 26.8396 110.401 26.8396C105.979 26.8396 102.476 23.8111 102.476 19.6105" fill="var(--fill-0, black)"/>
<path d="M123.853 5.08626H120.275V26.5405H123.853V5.08626Z" fill="var(--fill-0, black)"/>
<path d="M147.218 16.5479C147.254 17.9206 147.008 19.286 146.495 20.5596C145.981 21.8333 145.212 22.9881 144.235 23.9526C143.258 24.9171 142.093 25.6708 140.812 26.167C139.532 26.6632 138.163 26.8914 136.791 26.8375C135.346 26.8509 133.912 26.5723 132.576 26.0183C131.241 25.4644 130.031 24.6466 129.019 23.6138C128.007 22.5811 127.214 21.3547 126.687 20.0081C126.16 18.6615 125.911 17.2225 125.954 15.7772C125.911 14.3339 126.16 12.8968 126.687 11.5525C127.215 10.2082 128.008 8.98455 129.021 7.95515C130.034 6.92576 131.244 6.11195 132.579 5.56274C133.915 5.01353 135.348 4.74028 136.791 4.75945C141.615 4.75945 145.962 8.03071 146.744 11.798H142.68C141.879 9.6871 139.335 8.25213 136.791 8.25213C135.824 8.25796 134.868 8.45968 133.98 8.84512C133.093 9.23056 132.292 9.79174 131.628 10.4948C130.963 11.1979 130.448 12.0283 130.113 12.936C129.778 13.8437 129.63 14.8098 129.678 15.7761C129.636 16.7655 129.797 17.753 130.151 18.6778C130.505 19.6026 131.045 20.4451 131.737 21.1533C132.429 21.8614 133.259 22.4203 134.176 22.7954C135.092 23.1705 136.076 23.3538 137.066 23.3342C138.619 23.3712 140.133 22.8475 141.331 21.859C142.528 20.8705 143.33 19.4834 143.588 17.952H136.882V14.4891H147.087C147.199 15.1692 147.248 15.8579 147.235 16.5468" fill="var(--fill-0, black)"/>
<path d="M166.942 5.08626V26.5405H163.364V17.1376H152.969V26.5405H149.392V5.08626H152.97V13.6769H163.365V5.08626H166.942Z" fill="var(--fill-0, black)"/>
<path d="M185.738 8.51613H179.138V26.5405H175.56V8.51613H168.96V5.08626H185.729L185.738 8.51613Z" fill="var(--fill-0, black)"/>
</g>
</g>
<defs>
<clipPath id="clip0_0_4408">
<rect width="185.737" height="33" fill="white"/>
</clipPath>
</defs>
</svg>
